<svg width="66" height="39" viewBox="0 0 66 39" fill="none" xmlns="http://www.w3.org/2000/svg">
<path d="M24.1973 34.4932H22.1602V32.832H24.1973C24.4844 32.832 24.7168 32.7682 24.8945 32.6406C25.0723 32.513 25.2021 32.3376 25.2842 32.1143C25.3662 31.8864 25.4072 31.6312 25.4072 31.3486C25.4072 31.0615 25.3662 30.7926 25.2842 30.542C25.2021 30.2913 25.0723 30.0908 24.8945 29.9404C24.7168 29.7855 24.4844 29.708 24.1973 29.708H22.8096V38H20.8066V28.0469H24.1973C24.8672 28.0469 25.4414 28.1882 25.9199 28.4707C26.403 28.7533 26.7744 29.1429 27.0342 29.6396C27.2939 30.1318 27.4238 30.6969 27.4238 31.335C27.4238 31.9775 27.2939 32.5358 27.0342 33.0098C26.7744 33.4792 26.403 33.8438 25.9199 34.1035C25.4414 34.3633 24.8672 34.4932 24.1973 34.4932ZM35.7568 32.251V33.9121C35.7568 34.6139 35.6702 35.2292 35.4971 35.7578C35.3285 36.2819 35.0869 36.7217 34.7725 37.0771C34.4626 37.4281 34.0866 37.6924 33.6445 37.8701C33.207 38.0479 32.7217 38.1367 32.1885 38.1367C31.6553 38.1367 31.1676 38.0479 30.7256 37.8701C30.2881 37.6924 29.9098 37.4281 29.5908 37.0771C29.2764 36.7217 29.0326 36.2819 28.8594 35.7578C28.6862 35.2292 28.5996 34.6139 28.5996 33.9121V32.251C28.5996 31.5309 28.6839 30.902 28.8525 30.3643C29.0212 29.8219 29.265 29.3708 29.584 29.0107C29.903 28.6462 30.2812 28.3727 30.7188 28.1904C31.1562 28.0036 31.6416 27.9102 32.1748 27.9102C32.708 27.9102 33.1934 28.0036 33.6309 28.1904C34.0684 28.3727 34.4466 28.6462 34.7656 29.0107C35.0846 29.3708 35.3285 29.8219 35.4971 30.3643C35.6702 30.902 35.7568 31.5309 35.7568 32.251ZM33.7676 33.9121V32.2373C33.7676 31.7633 33.7334 31.36 33.665 31.0273C33.5967 30.6901 33.4941 30.4144 33.3574 30.2002C33.2207 29.986 33.0544 29.8288 32.8584 29.7285C32.6624 29.6283 32.4346 29.5781 32.1748 29.5781C31.915 29.5781 31.6849 29.6283 31.4844 29.7285C31.2884 29.8288 31.1221 29.986 30.9854 30.2002C30.8532 30.4144 30.7529 30.6901 30.6846 31.0273C30.6208 31.36 30.5889 31.7633 30.5889 32.2373V33.9121C30.5889 34.3678 30.623 34.7575 30.6914 35.0811C30.7598 35.4046 30.8623 35.6689 30.999 35.874C31.1357 36.0791 31.3021 36.2318 31.498 36.332C31.6986 36.4277 31.9287 36.4756 32.1885 36.4756C32.4437 36.4756 32.6693 36.4277 32.8652 36.332C33.0658 36.2318 33.2321 36.0791 33.3643 35.874C33.4964 35.6689 33.5967 35.4046 33.665 35.0811C33.7334 34.7575 33.7676 34.3678 33.7676 33.9121ZM37.2197 28.0469H40.4121C41.0775 28.0469 41.6449 28.1608 42.1143 28.3887C42.5837 28.6165 42.9437 28.9538 43.1943 29.4004C43.445 29.847 43.5703 30.3984 43.5703 31.0547C43.5703 31.5924 43.4974 32.0527 43.3516 32.4355C43.2057 32.8138 42.9984 33.1305 42.7295 33.3857C42.4606 33.6364 42.1393 33.8369 41.7656 33.9873L41.1572 34.3496H38.5664L38.5596 32.6885H40.3574C40.6309 32.6885 40.8564 32.6292 41.0342 32.5107C41.2165 32.3877 41.3509 32.2168 41.4375 31.998C41.5286 31.7747 41.5742 31.515 41.5742 31.2188C41.5742 30.9043 41.5332 30.6354 41.4512 30.4121C41.3737 30.1842 41.2484 30.0111 41.0752 29.8926C40.9066 29.7695 40.6855 29.708 40.4121 29.708H39.2227V38H37.2197V28.0469ZM41.7383 38L39.9131 33.5635L42.0117 33.5566L43.8779 37.9043V38H41.7383ZM48.5879 28.0469V38H46.5986V28.0469H48.5879ZM51.0625 28.0469V29.708H44.1719V28.0469H51.0625ZM55.0068 29.8242L52.8672 38H50.7549L53.8652 28.0469H55.1846L55.0068 29.8242ZM56.6953 38L54.542 29.8242L54.3438 28.0469H55.6836L58.8213 38H56.6953ZM56.7705 34.2881V35.9492H52.2793V34.2881H56.7705ZM65.2949 36.3457V38H61.1592V36.3457H65.2949ZM61.7744 28.0469V38H59.7715V28.0469H61.7744Z" fill="black"/>
<path d="M27.7656 16.0469V26H25.8311L22.707 19.7725V26H20.8066V16.0469H22.7139L25.8652 22.3428V16.0469H27.7656ZM32.7422 21.6592H30.6982L30.6914 20.21H32.4277C32.7012 20.21 32.9245 20.1644 33.0977 20.0732C33.2754 19.9775 33.4053 19.8385 33.4873 19.6562C33.5739 19.4694 33.6172 19.2438 33.6172 18.9795C33.6172 18.6742 33.5762 18.4303 33.4941 18.248C33.4167 18.0612 33.2913 17.9245 33.1182 17.8379C32.9495 17.7513 32.7262 17.708 32.4482 17.708H31.3818V26H29.3789V16.0469H32.4482C32.9404 16.0469 33.3825 16.1016 33.7744 16.2109C34.1663 16.3203 34.499 16.4889 34.7725 16.7168C35.0459 16.9401 35.2555 17.2227 35.4014 17.5645C35.5472 17.9017 35.6201 18.3027 35.6201 18.7676C35.6201 19.1777 35.5381 19.556 35.374 19.9023C35.21 20.2487 34.9525 20.5335 34.6016 20.7568C34.2507 20.9756 33.7972 21.0964 33.2412 21.1191L32.7422 21.6592ZM32.667 26H30.1309L30.9307 24.3457H32.667C32.9359 24.3457 33.1501 24.2887 33.3096 24.1748C33.4691 24.0609 33.5853 23.9082 33.6582 23.7168C33.7357 23.5208 33.7744 23.2975 33.7744 23.0469C33.7744 22.7643 33.7402 22.5182 33.6719 22.3086C33.6081 22.099 33.501 21.9395 33.3506 21.8301C33.2002 21.7161 32.9974 21.6592 32.7422 21.6592H31.0195L31.0332 20.21H33.125L33.5967 20.7842C34.1299 20.766 34.556 20.8685 34.875 21.0918C35.194 21.3105 35.4219 21.5977 35.5586 21.9531C35.6999 22.304 35.7705 22.6777 35.7705 23.0742C35.7705 23.7122 35.6497 24.25 35.4082 24.6875C35.1712 25.1204 34.8226 25.4486 34.3623 25.6719C33.902 25.8906 33.3369 26 32.667 26ZM40.8428 17.8242L38.7031 26H36.5908L39.7012 16.0469H41.0205L40.8428 17.8242ZM42.5312 26L40.3779 17.8242L40.1797 16.0469H41.5195L44.6572 26H42.5312ZM42.6064 22.2881V23.9492H38.1152V22.2881H42.6064Z" fill="black"/>
<path fill-rule="evenodd" clip-rule="evenodd" d="M16.1975 36.3702C15.8032 37.2791 14.7268 36.5694 14.4371 35.622V35.622C14.3519 35.3435 14.2806 34.8823 14.2323 34.5951C14.1886 34.3354 14.0414 34.0921 13.8955 33.6664C13.6629 32.9876 13.8663 32.2586 13.9693 31.5485C13.9971 31.3567 14.0094 31.1567 14.002 30.9494C13.9955 30.8677 13.9814 30.7922 13.9613 30.7216C13.7428 29.9549 13.2383 29.3129 13.0739 28.5328C12.8506 27.4735 12.6396 26.4054 12.2516 25.4318C12.1466 25.049 11.9481 24.6977 11.7392 24.3499C11.4547 23.8763 11.2656 23.3545 11.1748 22.8095C10.9608 21.525 10.792 20.2042 10.43 18.9993C10.3943 18.8804 10.4369 18.7535 10.5221 18.6632V18.6632C10.5826 18.5991 10.6 18.5071 10.5789 18.4215C10.388 17.6438 10.1483 16.6931 9.84831 15.9156C9.51417 15.0497 9.26749 14.0557 9.49378 13.1556C9.51496 13.0713 9.53465 12.9885 9.55236 12.9075C9.60034 12.6883 9.65714 12.5088 9.79504 12.3317V12.3317C10.2886 11.6979 11.1887 12.0217 11.3487 12.809C11.4484 13.2993 11.5305 13.7941 11.6164 14.25C11.6543 14.4508 11.7167 14.6463 11.8069 14.8298C11.8143 14.8448 11.8217 14.8598 11.8291 14.8748C12.5133 16.2518 11.6068 17.6818 11.1423 19.1475C11.0566 19.418 11.0107 19.7051 11.0107 20.0027C11.0107 21.5824 12.2737 22.8505 13.8244 22.8505V22.8505C14.578 22.8505 16.4167 23.6593 16.4167 24.413V35.31C16.4168 35.686 16.3389 36.0445 16.1975 36.3702Z" fill="#CC2229"/>
<path fill-rule="evenodd" clip-rule="evenodd" d="M10.0315 37.9849C11.4396 37.9815 12.7382 36.496 12.8721 35.0942V35.0942C12.889 34.9176 12.8794 34.708 12.8466 34.5336C12.8225 34.4052 12.7994 34.277 12.777 34.1493C12.6615 33.4909 12.3947 32.8722 12.1289 32.2589C12.1156 32.2282 12.1027 32.1975 12.09 32.1668C11.614 31.014 11.0959 29.8554 10.1265 29.0706C9.39572 28.479 8.6866 27.8835 8.13396 27.2095C6.58409 25.7361 5.41983 24.224 4.58703 22.547C4.47563 22.3226 4.26482 22.1679 4.01481 22.1528V22.1528C3.72585 22.1353 3.46065 21.9555 3.34553 21.6899C2.76128 20.3418 1.78654 18.8181 1.88604 17.7981C1.91605 17.1199 2.06805 16.4826 2.28003 15.8238C2.44423 15.3136 2.08681 14.9691 1.62017 14.7054V14.7054C1.49298 14.6236 1.39967 14.5278 1.33113 14.4219C0.867566 13.7058 1.20252 12.7371 1.539 11.9532C1.80651 11.33 2.12783 10.7387 2.37346 10.1221C2.6247 9.57541 2.86717 9.0288 3.10636 8.48776C3.38378 7.86023 3.74845 7.22239 4.2523 6.75669V6.75669C4.73907 6.30679 5.3902 6.20979 6.05289 6.19587C6.30508 6.19058 6.56187 6.17419 6.82667 6.11727C7.09254 6.02828 7.42498 5.96143 7.53585 5.78344C7.57821 5.72317 7.61213 5.66234 7.63967 5.60076C7.90243 5.01334 7.50786 4.15405 7.64535 3.52539C7.68005 3.36671 7.73735 3.21634 7.81657 3.09675C7.88082 2.99974 7.93313 2.89315 7.94056 2.77703V2.77703C7.96903 2.332 7.23557 1.03078 6.78965 1.02692L3.68075 1C3.32852 0.999379 2.97963 1.06859 2.65409 1.20367C2.32855 1.33875 2.03278 1.53703 1.78372 1.78716C1.53466 2.03728 1.33723 2.33432 1.20274 2.66124C1.06825 2.98815 0.999356 3.33852 1 3.69223V35.3078C0.999356 35.6615 1.06825 36.0118 1.20274 36.3388C1.33723 36.6657 1.53466 36.9627 1.78372 37.2128C2.03278 37.463 2.32855 37.6613 2.65409 37.7963C2.97963 37.9314 3.32852 38.0006 3.68075 38L10.0315 37.9849ZM2.70551 32.0686C2.70551 31.6951 3.00829 31.3923 3.3818 31.3923H3.58711C3.76122 31.3923 3.91506 31.5056 3.96672 31.6719L4.02748 31.8675C4.1521 32.2686 4.74383 32.1788 4.74383 31.7588V31.7588C4.74383 31.5564 4.90789 31.3923 5.11026 31.3923H5.27557C5.56924 31.3923 5.80731 31.6304 5.80731 31.9241V35.3511C5.80731 35.7328 5.49784 36.0423 5.11609 36.0423H4.90875C4.73135 36.0423 4.57433 35.9275 4.52047 35.7585L4.45544 35.5544C4.32568 35.1472 3.72467 35.2407 3.72467 35.6681V35.6681C3.72467 35.8747 3.55713 36.0423 3.35045 36.0423H3.21509C2.93365 36.0423 2.70551 35.8141 2.70551 35.5327V32.0686ZM5.98456 32.766C5.98456 32.0073 6.59956 31.3923 7.35821 31.3923V31.3923C9.15273 31.3923 8.68756 33.5723 8.02289 33.6168C9.0198 33.5059 9.15273 36.0423 7.53546 36.0423V36.0423C6.67892 36.0423 5.98456 35.3479 5.98456 34.4914V32.766ZM7.3141 32.1486C7.16716 32.1486 7.04803 32.2677 7.04803 32.4147V32.9281C7.04803 33.0751 7.16716 33.1942 7.3141 33.1942V33.1942C7.75721 33.1942 7.75721 32.1486 7.3141 32.1486V32.1486ZM7.3141 33.9954C7.16716 33.9954 7.04803 34.1145 7.04803 34.2614V35.0197C7.04803 35.1667 7.16716 35.2858 7.3141 35.2858V35.2858C7.82358 35.2858 7.75721 33.9954 7.3141 33.9954V33.9954ZM9.44199 32.0839C9.51846 31.6826 9.8693 31.3923 10.2778 31.3923V31.3923C10.6907 31.3923 11.044 31.6888 11.1157 32.0955L11.704 35.4326C11.76 35.7507 11.5153 36.0423 11.1923 36.0423H11.1398C10.9044 36.0423 10.7067 35.8648 10.6815 35.6307L10.6785 35.6035C10.655 35.3849 10.4704 35.2192 10.2505 35.2192V35.2192C10.0392 35.2192 9.85918 35.3724 9.82545 35.581L9.8174 35.6307C9.77904 35.8679 9.57423 36.0423 9.33393 36.0423H9.31143C8.98759 36.0423 8.74373 35.7476 8.80436 35.4294L9.44199 32.0839ZM10.0263 34.1221C10.0095 34.268 10.1236 34.3959 10.2704 34.3959V34.3959C10.4182 34.3959 10.5325 34.2664 10.5143 34.1198V34.1198C10.4783 33.8312 10.0594 33.8332 10.0263 34.1221V34.1221Z" fill="#33348E"/>
<path fill-rule="evenodd" clip-rule="evenodd" d="M13.0161 1.03051C12.137 1.0623 11.5907 2.22108 11.4996 3.09603V3.09603C11.4454 3.61748 11.2986 4.47728 10.9578 4.87571C10.8337 5.02088 10.709 5.166 10.6502 5.29886V5.29886C10.3188 6.23164 10.2286 6.76822 11.0283 7.35159C11.2864 7.53983 11.5432 7.73522 11.8089 7.94231C12.2634 8.2966 12.6705 8.72021 12.817 9.2776C13.0699 10.2397 13.2292 11.7771 13.4124 13.138C13.4595 13.4885 13.5417 13.8336 13.6696 14.1633C14.0368 15.1099 14.4683 15.9879 14.6812 17.0589C14.7123 17.2155 14.8284 17.3484 14.9723 17.4177V17.4177C15.4056 17.6263 16.4107 17.2671 16.4107 16.7862V3.69673C16.4113 3.34303 16.3425 2.99267 16.208 2.66577C16.0735 2.33886 15.876 2.04184 15.627 1.79173C15.3779 1.54162 15.0821 1.34335 14.7566 1.2083C14.4311 1.07324 14.0822 1.00405 13.73 1.0047L13.0161 1.03051Z" fill="#CC2229"/>
<rect x="0.875" y="0.875" width="15.6667" height="37.25" rx="3.125" stroke="black" stroke-width="0.25"/>
</svg>
